<svg width="355" height="50" viewBox="0 0 355 50" fill="none" xmlns="http://www.w3.org/2000/svg">
<g filter="url(#filter0_d_27_5)">
<path d="M16.848 41.408C14.8 41.408 12.9013 41.0667 11.152 40.384C9.40267 39.744 7.97333 38.72 6.864 37.312C5.75467 35.904 5.09333 34.0907 4.88 31.872C4.70933 29.952 5.008 27.8827 5.776 25.664C6.58667 23.4027 7.73867 21.1413 9.232 18.88C10.768 16.6187 12.5173 14.464 14.48 12.416C16.4427 10.368 18.512 8.53333 20.688 6.912C22.9067 5.29067 25.104 4.01067 27.28 3.072C29.456 2.13333 31.504 1.664 33.424 1.664C34.96 1.664 36.3253 2.15466 37.52 3.136C38.7147 4.11733 39.312 5.44 39.312 7.104C39.312 8.42667 38.8853 9.536 38.032 10.432C37.1787 11.2853 36.0907 11.712 34.768 11.712C34.7253 11.712 34.512 11.6907 34.128 11.648C33.744 11.6053 33.5307 11.456 33.488 11.2C33.7013 10.688 34.0853 10.24 34.64 9.856C35.2373 9.472 35.7707 8.96 36.24 8.32C36.7093 7.63733 36.88 6.63466 36.752 5.312C36.7093 4.544 36.3893 4.01067 35.792 3.712C35.2373 3.37066 34.5973 3.2 33.872 3.2C32.08 3.2 30.1813 3.712 28.176 4.736C26.1707 5.71733 24.1867 7.08267 22.224 8.832C20.304 10.5387 18.4693 12.4587 16.72 14.592C15.0133 16.7253 13.4987 18.944 12.176 21.248C10.896 23.552 9.91467 25.8133 9.232 28.032C8.54933 30.208 8.29333 32.1707 8.464 33.92C8.67733 35.84 9.53067 37.2693 11.024 38.208C12.56 39.1467 14.2027 39.616 15.952 39.616C17.9573 39.616 20.048 39.296 22.224 38.656C24.4 37.9733 26.5333 37.12 28.624 36.096C30.7573 35.072 32.7413 34.0053 34.576 32.896C36.4107 31.7867 37.9893 30.7627 39.312 29.824C40.6773 28.8853 41.6587 28.1813 42.256 27.712C42.2987 27.6693 42.3413 27.648 42.384 27.648C42.4693 27.648 42.512 27.7547 42.512 27.968C42.512 28.1387 42.4693 28.3307 42.384 28.544C42.3413 28.7573 42.2133 28.9707 42 29.184C40.6347 30.592 38.9493 32.0213 36.944 33.472C34.9813 34.88 32.848 36.1813 30.544 37.376C28.24 38.5707 25.8933 39.5307 23.504 40.256C21.1573 41.024 18.9387 41.408 16.848 41.408ZM60.4775 40.96C53.6508 40.96 50.2375 37.5253 50.2375 30.656C50.2375 28.2667 50.7068 25.9627 51.6455 23.744C52.6268 21.4827 53.8855 19.328 55.4215 17.28C56.9575 15.232 58.6215 13.312 60.4135 11.52C62.2055 9.728 63.9335 8.10667 65.5975 6.656C63.5068 7.38133 61.4802 8.36267 59.5175 9.6C57.5975 10.7947 55.8055 12.1387 54.1415 13.632C53.7575 13.9733 53.4162 14.144 53.1175 14.144C52.8615 14.144 52.7335 13.9947 52.7335 13.696C52.7335 13.44 52.8615 13.12 53.1175 12.736C54.9095 10.3467 57.1708 8.32 59.9015 6.656C62.6748 4.992 65.6402 3.73333 68.7975 2.88C71.9548 1.984 74.9842 1.536 77.8855 1.536C80.0188 1.536 82.1095 1.792 84.1575 2.304C86.2055 2.816 88.0615 3.62667 89.7255 4.736C91.3895 5.80267 92.7122 7.21067 93.6935 8.96C94.6748 10.7093 95.1655 12.8 95.1655 15.232C95.1655 17.536 94.5895 19.776 93.4375 21.952C92.3282 24.0853 90.8135 26.112 88.8935 28.032C86.9735 29.952 84.7975 31.7013 82.3655 33.28C79.9762 34.8587 77.4802 36.224 74.8775 37.376C72.2748 38.528 69.7362 39.4027 67.2615 40C64.7868 40.64 62.5255 40.96 60.4775 40.96ZM59.9655 38.848C62.3548 38.848 64.9788 38.3573 67.8375 37.376C70.7388 36.3947 73.5975 35.0507 76.4135 33.344C79.2722 31.5947 81.8962 29.5893 84.2855 27.328C86.6748 25.0667 88.5735 22.6773 89.9815 20.16C91.4322 17.6 92.1575 15.0187 92.1575 12.416C92.1575 10.6667 91.7522 9.216 90.9415 8.064C90.1308 6.912 89.0642 6.016 87.7415 5.376C86.4615 4.69333 85.0535 4.224 83.5175 3.968C81.9815 3.66933 80.5095 3.52 79.1015 3.52C77.5655 3.52 76.0295 3.648 74.4935 3.904C73.0002 4.11733 71.5068 4.45867 70.0135 4.928C70.3975 4.97066 70.8668 5.09866 71.4215 5.312C71.9762 5.52533 72.4668 5.80267 72.8935 6.144C73.3202 6.48533 73.5335 6.912 73.5335 7.424C73.5335 7.808 73.2988 8.08533 72.8295 8.256C71.2508 8.768 69.5442 9.6 67.7095 10.752C65.8748 11.904 64.0615 13.2907 62.2695 14.912C60.4775 16.4907 58.8348 18.2187 57.3415 20.096C55.8908 21.9733 54.7175 23.872 53.8215 25.792C52.9255 27.712 52.4775 29.5467 52.4775 31.296C52.4775 36.3307 54.9735 38.848 59.9655 38.848ZM108.813 39.424C108.514 39.424 108.002 39.36 107.277 39.232C106.594 39.0613 105.933 38.8693 105.293 38.656C104.696 38.4 104.376 38.144 104.333 37.888C104.333 37.632 104.568 37.4613 105.037 37.376C105.549 37.2907 106.061 37.248 106.573 37.248C107.128 37.2053 107.448 37.184 107.533 37.184C109.112 37.184 110.925 36.8853 112.973 36.288C115.021 35.6907 117.133 34.8587 119.309 33.792C121.485 32.7253 123.576 31.488 125.581 30.08C127.586 28.672 129.378 27.136 130.957 25.472C132.578 23.7653 133.816 22.016 134.669 20.224C135.522 18.432 135.842 16.64 135.629 14.848C135.373 12.6293 134.712 10.8373 133.645 9.472C132.621 8.064 131.298 6.976 129.677 6.208C128.098 5.39733 126.37 4.82133 124.493 4.48C122.658 4.13867 120.802 3.92533 118.925 3.84C117.048 3.75467 115.298 3.712 113.677 3.712C112.098 3.712 110.477 3.75467 108.813 3.84C107.149 3.92533 105.592 4.20266 104.141 4.672C103.714 4.8 103.288 4.928 102.861 5.056C102.434 5.184 101.986 5.248 101.517 5.248C101.474 5.248 101.346 5.248 101.133 5.248C100.92 5.20533 100.813 5.12 100.813 4.992C100.728 4.39466 101.005 3.88266 101.645 3.456C102.285 3.02933 103.096 2.66667 104.077 2.368C105.101 2.06933 106.146 1.83466 107.213 1.664C108.322 1.49333 109.325 1.38666 110.221 1.344C111.117 1.25867 111.757 1.216 112.141 1.216C114.146 1.216 116.258 1.32267 118.477 1.536C120.696 1.70667 122.893 2.09067 125.069 2.688C127.245 3.24266 129.25 4.05333 131.085 5.12C132.92 6.18666 134.434 7.59466 135.629 9.344C136.824 11.0933 137.57 13.2693 137.869 15.872C137.912 16.128 137.933 16.384 137.933 16.64C137.933 16.896 137.933 17.1307 137.933 17.344C137.933 19.904 137.293 22.3147 136.013 24.576C134.776 26.7947 133.09 28.8213 130.957 30.656C128.866 32.448 126.541 34.0053 123.981 35.328C121.421 36.6507 118.818 37.6747 116.173 38.4C113.528 39.0827 111.074 39.424 108.813 39.424ZM100.813 40.768C100.258 40.768 99.789 40.512 99.405 40C99.021 39.5307 98.7437 38.976 98.573 38.336C98.4023 37.696 98.317 37.2053 98.317 36.864C98.317 35.84 98.637 34.368 99.277 32.448C99.9597 30.4853 100.834 28.3093 101.901 25.92C103.01 23.488 104.226 21.056 105.549 18.624C106.914 16.1493 108.258 13.888 109.581 11.84C110.946 9.74933 112.226 8.08533 113.421 6.848C114.616 5.568 115.597 4.928 116.365 4.928C116.792 4.928 117.389 5.14133 118.157 5.568C118.925 5.99467 119.33 6.44267 119.373 6.912C119.416 7.08267 118.946 7.744 117.965 8.896C117.026 10.0053 115.81 11.456 114.317 13.248C112.824 14.9973 111.245 16.9387 109.581 19.072C107.96 21.2053 106.424 23.3813 104.973 25.6C103.522 27.8187 102.37 29.952 101.517 32C100.664 34.0053 100.322 35.776 100.493 37.312C100.536 37.568 100.6 37.7813 100.685 37.952C100.77 38.1227 100.962 38.208 101.261 38.208C101.73 38.208 102.136 38.08 102.477 37.824C102.818 37.5253 103.053 37.376 103.181 37.376C103.266 37.376 103.309 37.44 103.309 37.568C103.352 37.6533 103.373 37.696 103.373 37.696C103.458 38.4213 103.224 39.1253 102.669 39.808C102.157 40.448 101.538 40.768 100.813 40.768ZM153.479 41.024C151.133 41.024 149.127 40.4907 147.463 39.424C145.799 38.3573 144.797 36.5227 144.455 33.92C144.413 33.7493 144.391 33.5787 144.391 33.408C144.391 33.2373 144.391 33.0667 144.391 32.896C144.391 31.4453 144.647 29.9733 145.159 28.48C145.714 26.944 146.354 25.4507 147.079 24C147.847 22.5493 148.509 21.2267 149.063 20.032C148.679 19.9893 148.167 19.9467 147.527 19.904C146.93 19.8613 146.375 19.712 145.863 19.456C145.394 19.1573 145.159 18.7093 145.159 18.112C145.159 17.8987 145.245 17.7493 145.415 17.664C145.629 17.5787 145.842 17.536 146.055 17.536C146.311 17.536 146.567 17.5573 146.823 17.6C147.079 17.6427 147.271 17.664 147.399 17.664C148.594 17.664 149.682 17.28 150.663 16.512C151.687 15.7013 152.626 14.72 153.479 13.568C154.333 12.416 155.122 11.264 155.847 10.112C156.573 8.91733 157.255 7.91467 157.895 7.104C157.767 6.80533 157.597 6.656 157.383 6.656C157.17 6.61333 156.978 6.54933 156.807 6.464C156.637 6.336 156.509 6.016 156.423 5.504C156.338 4.82133 156.701 4.26667 157.511 3.84C158.322 3.41333 159.389 3.072 160.711 2.816C162.034 2.56 163.442 2.368 164.935 2.24C166.471 2.112 167.901 2.048 169.223 2.048C170.589 2.00533 171.677 1.984 172.487 1.984C174.109 1.984 175.751 2.00533 177.416 2.048C179.079 2.09067 180.743 2.26133 182.407 2.56C183.09 2.73066 183.559 3.008 183.815 3.392C184.114 3.776 184.264 4.13867 184.264 4.48C184.264 4.77866 184.157 5.056 183.944 5.312C183.773 5.52533 183.559 5.632 183.303 5.632C182.877 5.632 182.514 5.33333 182.215 4.736C181.533 4.43733 180.679 4.288 179.655 4.288C178.674 4.24533 177.842 4.224 177.16 4.224C176.519 4.224 175.581 4.26667 174.343 4.352C173.106 4.39466 171.783 4.48 170.375 4.608C169.01 4.69333 167.751 4.84267 166.599 5.056C165.49 5.26933 164.701 5.54667 164.231 5.888C163.805 6.144 163.165 6.74133 162.311 7.68C161.501 8.576 160.626 9.6 159.687 10.752C158.749 11.904 157.874 12.992 157.063 14.016C156.253 15.04 155.655 15.808 155.271 16.32C157.746 16.3627 160.199 16.2773 162.631 16.064C165.063 15.8507 167.517 15.744 169.991 15.744H172.359C173.127 15.744 173.895 15.7653 174.663 15.808C175.474 15.808 176.263 15.8507 177.031 15.936C177.543 15.9787 177.799 16.0853 177.799 16.256C177.799 16.384 177.629 16.5333 177.287 16.704C176.946 16.8747 176.583 17.024 176.199 17.152C175.858 17.28 175.602 17.3653 175.431 17.408C172.999 17.792 170.461 18.0053 167.815 18.048C165.17 18.0907 162.546 18.2187 159.943 18.432C157.383 18.6027 154.951 19.1787 152.647 20.16C152.477 20.544 152.114 21.2267 151.559 22.208C151.047 23.1893 150.493 24.32 149.895 25.6C149.298 26.88 148.765 28.2027 148.295 29.568C147.869 30.9333 147.655 32.2347 147.655 33.472C147.655 34.9227 148.082 36.1387 148.935 37.12C149.831 38.0587 151.41 38.528 153.671 38.528C155.591 38.528 157.767 38.2293 160.199 37.632C162.631 37.0347 165.106 36.288 167.623 35.392C170.141 34.4533 172.509 33.472 174.727 32.448C176.989 31.424 178.909 30.464 180.487 29.568C180.743 29.44 180.914 29.376 181 29.376C181.127 29.376 181.191 29.4613 181.191 29.632C181.191 29.8453 181.106 30.0587 180.935 30.272C180.253 31.2533 179.079 32.256 177.416 33.28C175.794 34.304 173.895 35.2853 171.719 36.224C169.543 37.12 167.303 37.9307 164.999 38.656C162.738 39.3813 160.583 39.9573 158.535 40.384C156.487 40.8107 154.802 41.024 153.479 41.024ZM192.195 40.448C191.683 40.448 191.128 40.2347 190.531 39.808C189.976 39.3387 189.699 38.6133 189.699 37.632C189.699 36.608 189.912 35.4133 190.339 34.048C190.808 32.6827 191.384 31.2747 192.067 29.824C192.792 28.3733 193.518 27.008 194.243 25.728C194.968 24.4053 195.608 23.2747 196.163 22.336C195.992 22.1653 195.8 21.9733 195.587 21.76C195.416 21.5467 195.331 21.2907 195.331 20.992C195.331 20.5653 195.544 20.224 195.971 19.968C196.398 19.6693 196.888 19.456 197.443 19.328C197.998 19.1573 198.446 19.0507 198.787 19.008C200.024 17.1307 201.219 15.2107 202.371 13.248C203.523 11.2427 204.824 9.38667 206.275 7.68C205.464 7.04 205.059 6.44266 205.059 5.888C205.059 5.20533 205.55 4.65067 206.531 4.224C207.555 3.79733 208.771 3.47733 210.179 3.264C211.63 3.008 212.974 2.85866 214.211 2.816C215.406 2.77333 216.814 2.73067 218.435 2.688C220.056 2.64533 221.72 2.624 223.427 2.624C225.176 2.58133 226.862 2.56 228.483 2.56C230.104 2.51733 231.512 2.496 232.707 2.496C233.56 2.496 234.264 2.624 234.819 2.88C235.416 3.136 235.715 3.43467 235.715 3.776C235.715 3.98933 235.48 4.20266 235.011 4.416C234.542 4.58666 233.731 4.672 232.579 4.672C230.403 4.672 228.227 4.75733 226.051 4.928C223.875 5.056 221.699 5.20533 219.523 5.376C216.92 5.54667 214.766 5.97333 213.059 6.656C211.395 7.33867 209.987 8.256 208.835 9.408C207.726 10.56 206.659 11.9467 205.635 13.568C204.654 15.1893 203.502 17.024 202.179 19.072C202.691 19.2427 203.502 19.3707 204.611 19.456C205.763 19.5413 206.915 19.6053 208.067 19.648C209.219 19.648 210.094 19.648 210.691 19.648C212.696 19.648 214.68 19.584 216.643 19.456C218.648 19.328 220.632 19.264 222.595 19.264C224.003 19.264 224.707 19.4133 224.707 19.712C224.707 19.8827 224.451 20.096 223.939 20.352C223.47 20.608 222.936 20.8427 222.339 21.056C221.742 21.2267 221.272 21.3333 220.931 21.376C217.603 21.8027 214.04 22.208 210.243 22.592C206.488 22.976 202.904 23.168 199.491 23.168C199.192 23.168 198.744 23.5947 198.147 24.448C197.55 25.2587 196.888 26.304 196.163 27.584C195.438 28.8213 194.755 30.1227 194.115 31.488C193.475 32.8107 192.942 34.0267 192.515 35.136C192.088 36.2027 191.875 36.9707 191.875 37.44C191.875 37.6107 191.875 37.8453 191.875 38.144C191.918 38.4 192.024 38.592 192.195 38.72C192.75 39.1467 193.027 39.5307 193.027 39.872C193.027 40.256 192.75 40.448 192.195 40.448ZM230.364 41.088C229.98 41.088 229.724 41.0027 229.596 40.832C229.468 40.704 229.361 40.4693 229.276 40.128C229.233 39.9573 229.212 39.808 229.212 39.68C229.212 39.5093 229.212 39.36 229.212 39.232C229.212 38.6347 229.34 38.1653 229.596 37.824C229.852 37.4827 230.385 37.3333 231.196 37.376C231.238 35.9253 231.686 34.048 232.54 31.744C233.393 29.3973 234.524 26.8373 235.932 24.064C237.382 21.2907 239.004 18.5387 240.796 15.808C242.588 13.0347 244.422 10.496 246.3 8.192C248.22 5.888 250.076 4.05333 251.868 2.688C253.66 1.28 255.281 0.575996 256.732 0.575996C257.286 0.575996 257.969 0.810664 258.78 1.28C259.59 1.70667 260.316 2.24 260.956 2.88C261.638 3.52 262.001 4.13867 262.044 4.736C262.044 4.77867 262.044 4.82133 262.044 4.864C262.086 4.864 262.108 4.90666 262.108 4.992C262.108 5.29066 262.001 5.44 261.788 5.44C261.233 5.14133 260.849 4.864 260.636 4.608C260.422 4.352 259.91 4.224 259.1 4.224C257.692 4.224 256.092 4.84267 254.3 6.08C252.55 7.27466 250.716 8.896 248.796 10.944C246.918 12.9493 245.062 15.168 243.228 17.6C241.436 20.032 239.793 22.4853 238.3 24.96C236.806 27.392 235.59 29.6747 234.652 31.808C233.713 33.8987 233.158 35.6053 232.988 36.928C236.102 36.4587 239.26 36.16 242.46 36.032C245.66 35.8613 248.838 35.776 251.996 35.776C254.257 35.776 256.006 35.8827 257.244 36.096C258.481 36.2667 259.334 36.5013 259.804 36.8C260.316 37.0987 260.572 37.376 260.572 37.632C260.572 38.1013 259.782 38.336 258.204 38.336C257.478 38.336 256.582 38.3147 255.516 38.272C254.492 38.1867 253.425 38.144 252.316 38.144C250.481 38.144 248.924 38.1867 247.644 38.272C246.364 38.3147 245.041 38.4213 243.676 38.592C242.31 38.7627 240.561 39.0187 238.428 39.36C238.086 39.4027 237.489 39.5307 236.635 39.744C235.825 39.9147 234.95 40.1067 234.012 40.32C233.116 40.5333 232.305 40.704 231.58 40.832C230.897 41.0027 230.492 41.088 230.364 41.088ZM268.869 40.32C268.186 40.32 267.845 39.9787 267.845 39.296C267.845 38.5707 268.272 38.016 269.125 37.632C270.021 37.2053 271.088 36.8853 272.325 36.672C273.605 36.4587 274.821 36.3093 275.973 36.224C277.125 36.1387 277.978 36.0747 278.533 36.032C278.96 34.4533 279.621 32.5333 280.517 30.272C281.456 28.0107 282.544 25.6213 283.781 23.104C285.061 20.5867 286.384 18.112 287.749 15.68C289.157 13.248 290.565 11.072 291.973 9.152C293.381 7.18933 294.682 5.696 295.877 4.672C294.853 4.62933 293.808 4.8 292.741 5.184C291.674 5.52533 290.65 5.888 289.669 6.272C288.73 6.61333 287.898 6.784 287.173 6.784C286.789 6.784 286.448 6.592 286.149 6.208C285.893 5.824 285.765 5.48267 285.765 5.184C285.765 4.62933 286.128 4.20266 286.853 3.904C287.578 3.56267 288.474 3.30666 289.541 3.136C290.65 2.96533 291.781 2.83733 292.933 2.752C294.085 2.624 295.109 2.51733 296.005 2.432C296.944 2.304 297.584 2.15466 297.925 1.984C298.224 1.856 298.544 1.536 298.885 1.024C299.226 0.469331 299.546 0.191998 299.845 0.191998C300.314 0.191998 300.826 0.405331 301.381 0.831997C301.936 1.25866 302.362 1.64266 302.661 1.984C304.154 1.984 305.69 2.00533 307.269 2.048C308.848 2.09067 310.405 2.176 311.941 2.304C312.069 2.304 312.24 2.34666 312.453 2.432C312.709 2.47467 312.858 2.60266 312.901 2.816C312.688 3.24266 312.026 3.54133 310.917 3.712C309.85 3.84 308.549 3.98933 307.013 4.16C305.52 4.33066 303.984 4.672 302.405 5.184C300.869 5.65333 299.525 6.42133 298.373 7.488C297.136 8.64 295.813 10.0907 294.405 11.84C293.04 13.5893 291.653 15.5093 290.245 17.6C288.88 19.6907 287.557 21.8453 286.277 24.064C285.04 26.24 283.93 28.352 282.949 30.4C281.968 32.4053 281.221 34.1973 280.709 35.776C282.586 35.8187 284.442 35.8187 286.277 35.776C288.112 35.6907 289.946 35.648 291.781 35.648C291.866 35.648 292.165 35.6693 292.677 35.712C293.232 35.7547 293.509 35.904 293.509 36.16C293.552 36.416 293.402 36.6293 293.061 36.8C292.72 36.928 292.336 37.0347 291.909 37.12C291.525 37.1627 291.248 37.2053 291.077 37.248C287.493 37.5467 283.866 37.9307 280.197 38.4C276.57 38.8267 273.008 39.4453 269.509 40.256C269.424 40.256 269.317 40.256 269.189 40.256C269.104 40.2987 268.997 40.32 268.869 40.32ZM312.723 40.512C312.04 40.512 311.571 40.2773 311.315 39.808C311.059 39.296 310.931 38.7413 310.931 38.144C310.931 37.1627 311.294 36.0107 312.019 34.688C312.787 33.3653 313.768 32 314.963 30.592C316.158 29.1413 317.416 27.7547 318.739 26.432C320.062 25.0667 321.299 23.8293 322.451 22.72C323.646 21.6107 324.584 20.736 325.267 20.096C325.139 19.6267 324.947 18.8373 324.691 17.728C324.435 16.6187 324.136 15.36 323.795 13.952C323.496 12.544 323.198 11.1573 322.899 9.792C322.6 8.384 322.344 7.168 322.131 6.144C321.96 5.12 321.875 4.43733 321.875 4.096C321.875 3.328 322.088 2.816 322.515 2.56C322.984 2.304 323.56 2.176 324.243 2.176C325.011 2.176 325.48 2.58133 325.651 3.392C326.163 5.52533 326.632 7.808 327.059 10.24C327.486 12.672 327.912 15.0187 328.339 17.28C328.851 16.8107 329.747 16 331.027 14.848C332.307 13.6533 333.779 12.3307 335.443 10.88C337.15 9.38667 338.878 7.936 340.627 6.528C342.376 5.07733 343.976 3.88266 345.427 2.944C346.323 2.34666 347.198 1.92 348.051 1.664C348.904 1.36533 349.523 1.216 349.907 1.216C350.376 1.216 350.611 1.32267 350.611 1.536C350.611 1.74933 350.419 2.00533 350.035 2.304C349.096 3.02933 348.115 3.73333 347.091 4.416C346.067 5.09866 345.064 5.80267 344.083 6.528C341.438 8.49067 338.835 10.5387 336.275 12.672C333.715 14.8053 331.219 17.0027 328.787 19.264C328.958 20.0747 329.214 21.184 329.555 22.592C329.939 24 330.387 25.536 330.899 27.2C331.411 28.8213 332.03 30.3573 332.755 31.808C333.48 33.2587 334.291 34.4533 335.187 35.392C336.083 36.3307 337.064 36.8 338.131 36.8C338.6 36.8 339.091 36.6293 339.603 36.288C340.158 35.904 340.627 35.5627 341.011 35.264C341.864 34.624 342.632 33.856 343.315 32.96C344.04 32.0213 344.659 31.2107 345.171 30.528C345.683 29.8027 346.11 29.44 346.451 29.44C346.707 29.44 346.835 29.5893 346.835 29.888C346.835 30.656 346.43 31.5947 345.619 32.704C344.851 33.7707 343.87 34.8587 342.675 35.968C341.523 37.0347 340.35 37.9307 339.155 38.656C337.96 39.3813 336.936 39.744 336.083 39.744C334.803 39.744 333.651 39.296 332.627 38.4C331.603 37.504 330.707 36.352 329.939 34.944C329.171 33.4933 328.51 31.9787 327.955 30.4C327.4 28.7787 326.931 27.2427 326.547 25.792C326.206 24.3413 325.928 23.1467 325.715 22.208C324.862 23.0187 323.752 24.0853 322.387 25.408C321.064 26.7307 319.72 28.16 318.355 29.696C316.99 31.232 315.838 32.7467 314.899 34.24C314.003 35.7333 313.555 37.0773 313.555 38.272C313.555 38.7413 313.662 39.1893 313.875 39.616C313.832 39.7013 313.662 39.872 313.363 40.128C313.107 40.384 312.894 40.512 312.723 40.512Z" fill="#E825B1"/>
</g>
<defs>
<filter id="filter0_d_27_5" x="0.624001" y="0.191895" width="353.987" height="49.2161" filterUnits="userSpaceOnUse" color-interpolation-filters="sRGB">
<feFlood flood-opacity="0" result="BackgroundImageFix"/>
<feColorMatrix in="SourceAlpha" type="matrix" values="0 0 0 0 0 0 0 0 0 0 0 0 0 0 0 0 0 0 127 0" result="hardAlpha"/>
<feOffset dy="4"/>
<feGaussianBlur stdDeviation="2"/>
<feComposite in2="hardAlpha" operator="out"/>
<feColorMatrix type="matrix" values="0 0 0 0 0 0 0 0 0 0 0 0 0 0 0 0 0 0 0.25 0"/>
<feBlend mode="normal" in2="BackgroundImageFix" result="effect1_dropShadow_27_5"/>
<feBlend mode="normal" in="SourceGraphic" in2="effect1_dropShadow_27_5" result="shape"/>
</filter>
</defs>
</svg>
